<svg xmlns="http://www.w3.org/2000/svg" viewBox="0 0 64 64" width="64" height="64">
  <defs>
    <linearGradient id="bg" x1="0%" y1="0%" x2="100%" y2="100%">
      <stop offset="0%" style="stop-color:#2C5F8A"/>
      <stop offset="100%" style="stop-color:#1B3A5C"/>
    </linearGradient>
    <linearGradient id="circuit" x1="0%" y1="0%" x2="100%" y2="100%">
      <stop offset="0%" style="stop-color:#8BB8D9"/>
      <stop offset="100%" style="stop-color:#D6E8F5"/>
    </linearGradient>
  </defs>
  <!-- Rounded square background -->
  <rect x="2" y="2" width="60" height="60" rx="14" ry="14" fill="url(#bg)"/>
  <!-- Brain left hemisphere -->
  <path d="M31 16 C31 16, 22 16, 19 20 C16 24, 15 27, 16 31 C14 32, 13 35, 14 38 C15 41, 17 43, 19 44 C19 46, 21 48, 24 48 C27 48, 29 47, 31 45" 
        fill="none" stroke="url(#circuit)" stroke-width="2.5" stroke-linecap="round" stroke-linejoin="round"/>
  <!-- Brain right hemisphere -->
  <path d="M33 16 C33 16, 42 16, 45 20 C48 24, 49 27, 48 31 C50 32, 51 35, 50 38 C49 41, 47 43, 45 44 C45 46, 43 48, 40 48 C37 48, 35 47, 33 45"
        fill="none" stroke="url(#circuit)" stroke-width="2.5" stroke-linecap="round" stroke-linejoin="round"/>
  <!-- Center line -->
  <line x1="32" y1="15" x2="32" y2="46" stroke="#5B8DB8" stroke-width="1.5" opacity="0.5"/>
  <!-- Circuit traces - left -->
  <path d="M22 24 L26 24 L26 28" fill="none" stroke="#8BB8D9" stroke-width="1.8" stroke-linecap="round" stroke-linejoin="round"/>
  <path d="M19 32 L24 32 L24 37" fill="none" stroke="#8BB8D9" stroke-width="1.8" stroke-linecap="round" stroke-linejoin="round"/>
  <path d="M22 42 L27 42 L27 38" fill="none" stroke="#8BB8D9" stroke-width="1.8" stroke-linecap="round" stroke-linejoin="round"/>
  <!-- Circuit traces - right -->
  <path d="M42 24 L38 24 L38 28" fill="none" stroke="#8BB8D9" stroke-width="1.8" stroke-linecap="round" stroke-linejoin="round"/>
  <path d="M45 32 L40 32 L40 37" fill="none" stroke="#8BB8D9" stroke-width="1.8" stroke-linecap="round" stroke-linejoin="round"/>
  <path d="M42 42 L37 42 L37 38" fill="none" stroke="#8BB8D9" stroke-width="1.8" stroke-linecap="round" stroke-linejoin="round"/>
  <!-- Circuit nodes -->
  <circle cx="22" cy="24" r="2" fill="#D6E8F5"/>
  <circle cx="26" cy="28" r="2" fill="#D6E8F5"/>
  <circle cx="19" cy="32" r="2" fill="#D6E8F5"/>
  <circle cx="24" cy="37" r="2" fill="#D6E8F5"/>
  <circle cx="22" cy="42" r="2" fill="#D6E8F5"/>
  <circle cx="27" cy="38" r="2" fill="#D6E8F5"/>
  <circle cx="42" cy="24" r="2" fill="#D6E8F5"/>
  <circle cx="38" cy="28" r="2" fill="#D6E8F5"/>
  <circle cx="45" cy="32" r="2" fill="#D6E8F5"/>
  <circle cx="40" cy="37" r="2" fill="#D6E8F5"/>
  <circle cx="42" cy="42" r="2" fill="#D6E8F5"/>
  <circle cx="37" cy="38" r="2" fill="#D6E8F5"/>
  <!-- Central core node -->
  <circle cx="32" cy="30" r="3.5" fill="#5B8DB8" stroke="#D6E8F5" stroke-width="1.5"/>
  <circle cx="32" cy="30" r="1.5" fill="#D6E8F5"/>
</svg>
